# xmcd
# 
# Track frame offsets:
#     150
#     20350
#     40971
#     78746
#     99951
#     121312
#     135522
#     158072
#     192720
#     210348
#     241570
#     255543
#     271985
#     292590
#     312592
# 
# Disc length: 4404
# 
# Revision: 0
# Processed by: cddbd v1.5.2PL0 Copyright (c) Steve Scherf et al.
# Submitted via: fre:ac v1.0.17
# 
DISCID=c311320f
DTITLE=Buddy Guy - Damn Right. I`ve Got The Blues
DYEAR=1991
DGENRE=Blues
TTITLE0=Damn Right, I´ve Got The Blues
TTITLE1=Where Is The Next One Coming From
TTITLE2=Five Long Years
TTITLE3=Mustang Sally
TTITLE4=There Is Something On Your Mind
TTITLE5=Early In The Morning
TTITLE6=Too Broke To Spend The Night
TTITLE7=Black Night
TTITLE8=Let Me Love You Baby
TTITLE9=Rememberin´ Stevie
TTITLE10=Freddy King - Have You Ever Loved a Woman
TTITLE11=Freddy King - Look ma I'm crying
TTITLE12=Freddy King - Someday after a while (you'll be sorry)
TTITLE13=Freddy King - Sweet Home Chicago
TTITLE14=Freddy King and Eric Clapton - Sugar Mama  Live Des Moines 
EXTD=
EXTT0=
EXTT1=
EXTT2=
EXTT3=
EXTT4=
EXTT5=
EXTT6=
EXTT7=
EXTT8=
EXTT9=
EXTT10=
EXTT11=
EXTT12=
EXTT13=
EXTT14=
PLAYORDER=
